<svg width="36" height="35" viewBox="0 0 36 35" fill="none" xmlns="http://www.w3.org/2000/svg">
<path d="M30.8382 26.9756C29.269 28.3642 26.9948 29.3602 24.0156 29.9634C21.0364 30.5667 17.9662 30.7431 14.8051 30.4927L8.80116 35V29.3659C6.8226 28.7512 5.27615 27.9545 4.16179 26.9756C2.84275 25.8146 1.81936 24.1472 1.09162 21.9732C0.363872 19.7992 0 17.5797 0 15.3146C0 13.0496 0.363872 10.8301 1.09162 8.6561C1.81936 6.48211 2.84844 4.80894 4.17884 3.63659C5.50925 2.46423 7.4139 1.56504 9.89278 0.939024C12.3717 0.313008 14.9074 0 17.5 0C20.0926 0 22.6283 0.313008 25.1072 0.939024C27.5861 1.56504 29.4907 2.46423 30.8211 3.63659C32.1515 4.80894 33.1806 6.48211 33.9083 8.6561C34.6361 10.8301 35 13.0496 35 15.3146C35 17.5797 34.6361 19.7992 33.9083 21.9732C33.1806 24.1472 32.1572 25.8146 30.8382 26.9756ZM21.7982 18.6098L24.0156 18.9854C23.8336 16.2537 22.7818 13.9203 20.8601 11.9854C18.9384 10.0504 16.613 8.99187 13.884 8.80976L14.2592 11.0293C16.2151 11.2797 17.898 12.1106 19.308 13.522C20.718 14.9333 21.5481 16.6293 21.7982 18.6098ZM14.6345 13.3171L15.0438 15.7756C15.9535 16.2309 16.6244 16.9024 17.0565 17.7902L19.5126 18.2C19.2397 16.9935 18.6598 15.952 17.7729 15.0756C16.8859 14.1992 15.8398 13.613 14.6345 13.3171ZM10.9844 15.3317V13.1463C10.9844 12.7593 10.8423 12.3724 10.558 11.9854C10.2737 11.5984 9.97237 11.3195 9.65398 11.1488C9.3356 10.978 9.09681 10.961 8.93761 11.0976L7.36841 12.7024C6.48147 13.5902 6.35071 14.9732 6.97611 16.8512C7.60152 18.7293 8.79547 20.5504 10.558 22.3146C12.3205 24.0789 14.1398 25.274 16.0161 25.9C17.8923 26.526 19.2625 26.3951 20.1267 25.5073L21.73 23.9024C21.8892 23.7659 21.8835 23.5325 21.7129 23.2024C21.5424 22.8724 21.2638 22.5707 20.8772 22.2976C20.4906 22.0244 20.1039 21.8878 19.7173 21.8878H17.5341L16.2719 22.9805C15.2713 22.7073 14.0261 21.8252 12.5365 20.3341C11.0469 18.8431 10.1657 17.5854 9.89278 16.561L10.9844 15.3317ZM13.1676 4.40488L13.5088 6.62439C15.783 6.66992 17.8866 7.26748 19.8197 8.41707C21.7527 9.56667 23.2878 11.1033 24.4249 13.0268C25.562 14.9504 26.1647 17.0504 26.2329 19.3268L28.4503 19.7024C28.4503 17.6309 28.0466 15.6504 27.2392 13.761C26.4319 11.8715 25.346 10.2439 23.9815 8.87805C22.6169 7.5122 20.9909 6.4252 19.1033 5.61707C17.2157 4.80894 15.2371 4.40488 13.1676 4.40488Z" fill="white"/>
</svg>
